<svg width="181" height="52" viewBox="0 0 181 52" fill="none" xmlns="http://www.w3.org/2000/svg">
<path d="M179.5 46.0029C179.5 48.774 177.209 51.0187 174.374 51.0187H6.63243C3.7995 51.0187 1.5 48.774 1.5 46.0029V6.00333C1.5 3.23349 3.7995 0.980957 6.63243 0.980957H174.373C177.209 0.980957 179.499 3.23349 179.499 6.00333L179.5 46.0029Z" fill="black"/>
<path d="M173.833 1.04163C176.92 1.04163 179.432 3.4905 179.432 6.5V45.5C179.432 48.5095 176.92 50.9584 173.833 50.9584H7.16667C4.08 50.9584 1.56833 48.5095 1.56833 45.5V6.5C1.56833 3.4905 4.08 1.04163 7.16667 1.04163H173.833ZM173.833 2.74817e-06H7.16667C3.50167 2.74817e-06 0.5 2.92663 0.5 6.5V45.5C0.5 49.0734 3.50167 52 7.16667 52H173.833C177.498 52 180.5 49.0734 180.5 45.5V6.5C180.5 2.92663 177.498 2.74817e-06 173.833 2.74817e-06Z" fill="#A6A6A6"/>
<path d="M40.6707 25.7191C40.632 21.5292 44.1894 19.4908 44.352 19.3959C42.3374 16.532 39.2147 16.1407 38.1174 16.1095C35.4947 15.8404 32.9507 17.6396 31.6147 17.6396C30.252 17.6396 28.1947 16.1355 25.9774 16.1797C23.124 16.2226 20.4547 17.8333 18.9907 20.3345C15.9694 25.4344 18.2227 32.9289 21.1174 37.0512C22.5654 39.0701 24.2574 41.3243 26.472 41.245C28.6387 41.1579 29.448 39.8982 32.0627 39.8982C34.6534 39.8982 35.4134 41.245 37.672 41.1943C39.9974 41.1579 41.4614 39.1663 42.8587 37.1292C44.532 34.8152 45.204 32.5363 45.2307 32.4193C45.176 32.4011 40.7147 30.741 40.6707 25.7191Z" fill="white"/>
<path d="M36.404 13.3977C37.5694 11.9768 38.3667 10.0437 38.1454 8.08203C36.4587 8.15483 34.3494 9.21953 33.1347 10.6092C32.06 11.8338 31.1 13.841 31.348 15.7286C33.2427 15.8664 35.188 14.7965 36.404 13.3977Z" fill="white"/>
<path d="M65.9 13.0118C65.9 14.5419 65.4294 15.6937 64.4894 16.4672C63.6187 17.1809 62.3814 17.5384 60.7787 17.5384C59.984 17.5384 59.304 17.5046 58.7347 17.437V9.0767C59.4773 8.9597 60.2773 8.8999 61.1413 8.8999C62.668 8.8999 63.8187 9.2236 64.5947 9.871C65.464 10.6029 65.9 11.6494 65.9 13.0118ZM64.4267 13.0495C64.4267 12.0576 64.1574 11.2971 63.6187 10.7667C63.08 10.2376 62.2934 9.9724 61.2574 9.9724C60.8174 9.9724 60.4427 10.001 60.132 10.0608V16.4165C60.304 16.4425 60.6187 16.4542 61.076 16.4542C62.1454 16.4542 62.9707 16.1643 63.552 15.5845C64.1334 15.0047 64.4267 14.1597 64.4267 13.0495Z" fill="white"/>
<path d="M73.712 14.3482C73.712 15.2907 73.436 16.0629 72.884 16.6687C72.3054 17.2914 71.5387 17.6021 70.5814 17.6021C69.6587 17.6021 68.924 17.3044 68.376 16.7064C67.8294 16.1097 67.556 15.357 67.556 14.4496C67.556 13.5006 67.8374 12.7219 68.4027 12.1174C68.968 11.5129 69.728 11.21 70.6854 11.21C71.608 11.21 72.3494 11.5077 72.9107 12.1044C73.444 12.6842 73.712 13.433 73.712 14.3482ZM72.2627 14.3924C72.2627 13.8269 72.1374 13.342 71.888 12.9377C71.5947 12.4489 71.1774 12.2045 70.6347 12.2045C70.0734 12.2045 69.6467 12.4489 69.3534 12.9377C69.1027 13.342 68.9787 13.8347 68.9787 14.4171C68.9787 14.9826 69.104 15.4675 69.3534 15.8718C69.656 16.3606 70.0774 16.605 70.6214 16.605C71.1547 16.605 71.5734 16.3567 71.8747 15.8588C72.1334 15.4467 72.2627 14.9579 72.2627 14.3924Z" fill="white"/>
<path d="M84.1867 11.335L82.22 17.4632H80.94L80.1253 14.8021C79.9187 14.1378 79.7507 13.4774 79.62 12.8222H79.5947C79.4733 13.4956 79.3053 14.1547 79.0893 14.8021L78.224 17.4632H76.9293L75.08 11.335H76.516L77.2267 14.2483C77.3987 14.9373 77.54 15.5938 77.6533 16.2152H77.6787C77.7827 15.703 77.9547 15.0504 78.1973 14.2613L79.0893 11.3363H80.228L81.0827 14.1989C81.2893 14.897 81.4573 15.5691 81.5867 16.2165H81.6253C81.72 15.586 81.8627 14.9139 82.052 14.1989L82.8147 11.3363H84.1867V11.335Z" fill="white"/>
<path d="M91.4307 17.463H90.0334V13.953C90.0334 12.8714 89.612 12.3306 88.7667 12.3306C88.352 12.3306 88.0174 12.4788 87.7574 12.7765C87.5 13.0742 87.3694 13.4252 87.3694 13.8269V17.4617H85.972V13.0859C85.972 12.5477 85.9547 11.964 85.9214 11.3322H87.1494L87.2147 12.2903H87.2534C87.4161 11.9926 87.6587 11.7469 87.9774 11.5506C88.356 11.3218 88.78 11.2061 89.244 11.2061C89.8307 11.2061 90.3187 11.3907 90.7067 11.7612C91.1894 12.2149 91.4307 12.8922 91.4307 13.7918V17.463V17.463Z" fill="white"/>
<path d="M95.284 17.463H93.888V8.52295H95.284V17.463Z" fill="white"/>
<path d="M103.511 14.3482C103.511 15.2907 103.235 16.0629 102.683 16.6687C102.104 17.2914 101.336 17.6021 100.38 17.6021C99.456 17.6021 98.7213 17.3044 98.1747 16.7064C97.628 16.1097 97.3547 15.357 97.3547 14.4496C97.3547 13.5006 97.636 12.7219 98.2013 12.1174C98.7667 11.5129 99.5267 11.21 100.483 11.21C101.407 11.21 102.147 11.5077 102.709 12.1044C103.243 12.6842 103.511 13.433 103.511 14.3482ZM102.06 14.3924C102.06 13.8269 101.935 13.342 101.685 12.9377C101.393 12.4489 100.975 12.2045 100.433 12.2045C99.8707 12.2045 99.444 12.4489 99.152 12.9377C98.9013 13.342 98.7773 13.8347 98.7773 14.4171C98.7773 14.9826 98.9027 15.4675 99.152 15.8718C99.4547 16.3606 99.876 16.605 100.42 16.605C100.953 16.605 101.371 16.3567 101.672 15.8588C101.932 15.4467 102.06 14.9579 102.06 14.3924Z" fill="white"/>
<path d="M110.273 17.463H109.019L108.915 16.7571H108.876C108.447 17.32 107.835 17.6021 107.04 17.6021C106.447 17.6021 105.967 17.4162 105.605 17.047C105.277 16.7116 105.113 16.2943 105.113 15.799C105.113 15.0502 105.433 14.4795 106.077 14.0843C106.72 13.6891 107.624 13.4954 108.788 13.5045V13.3901C108.788 12.5828 108.353 12.1798 107.483 12.1798C106.863 12.1798 106.316 12.3319 105.844 12.6335L105.56 11.7391C106.144 11.3868 106.865 11.21 107.716 11.21C109.359 11.21 110.183 12.055 110.183 13.745V16.0018C110.183 16.6141 110.213 17.1016 110.273 17.463ZM108.823 15.357V14.4119C107.281 14.3859 106.511 14.798 106.511 15.6469C106.511 15.9667 106.599 16.2059 106.779 16.3658C106.959 16.5257 107.188 16.605 107.461 16.605C107.768 16.605 108.055 16.5101 108.316 16.3216C108.579 16.1318 108.74 15.8913 108.8 15.5962C108.815 15.5299 108.823 15.4493 108.823 15.357Z" fill="white"/>
<path d="M118.213 17.463H116.973L116.908 16.4789H116.869C116.473 17.2277 115.799 17.6021 114.851 17.6021C114.093 17.6021 113.463 17.3122 112.963 16.7324C112.463 16.1526 112.213 15.3999 112.213 14.4756C112.213 13.4837 112.484 12.6803 113.028 12.0667C113.555 11.4947 114.2 11.2087 114.968 11.2087C115.812 11.2087 116.403 11.4856 116.739 12.0407H116.765V8.52295H118.164V15.812C118.164 16.4087 118.18 16.9586 118.213 17.463ZM116.765 14.8786V13.8568C116.765 13.68 116.752 13.537 116.727 13.4278C116.648 13.1002 116.479 12.8246 116.221 12.6023C115.961 12.38 115.648 12.2682 115.287 12.2682C114.765 12.2682 114.357 12.4697 114.057 12.874C113.76 13.2783 113.609 13.7944 113.609 14.4249C113.609 15.0307 113.752 15.5221 114.039 15.9004C114.341 16.3034 114.749 16.5049 115.26 16.5049C115.719 16.5049 116.085 16.3372 116.364 16.0005C116.633 15.6898 116.765 15.3154 116.765 14.8786Z" fill="white"/>
<path d="M130.164 14.3482C130.164 15.2907 129.888 16.0629 129.336 16.6687C128.757 17.2914 127.992 17.6021 127.033 17.6021C126.112 17.6021 125.377 17.3044 124.828 16.7064C124.281 16.1097 124.008 15.357 124.008 14.4496C124.008 13.5006 124.289 12.7219 124.855 12.1174C125.42 11.5129 126.18 11.21 127.139 11.21C128.06 11.21 128.803 11.5077 129.363 12.1044C129.896 12.6842 130.164 13.433 130.164 14.3482ZM128.716 14.3924C128.716 13.8269 128.591 13.342 128.341 12.9377C128.047 12.4489 127.631 12.2045 127.087 12.2045C126.527 12.2045 126.1 12.4489 125.805 12.9377C125.555 13.342 125.431 13.8347 125.431 14.4171C125.431 14.9826 125.556 15.4675 125.805 15.8718C126.108 16.3606 126.529 16.605 127.073 16.605C127.607 16.605 128.027 16.3567 128.328 15.8588C128.585 15.4467 128.716 14.9579 128.716 14.3924Z" fill="white"/>
<path d="M137.677 17.463H136.281V13.953C136.281 12.8714 135.86 12.3306 135.013 12.3306C134.599 12.3306 134.264 12.4788 134.005 12.7765C133.747 13.0742 133.617 13.4252 133.617 13.8269V17.4617H132.219V13.0859C132.219 12.5477 132.203 11.964 132.169 11.3322H133.396L133.461 12.2903H133.5C133.664 11.9926 133.907 11.7469 134.224 11.5506C134.604 11.3218 135.027 11.2061 135.492 11.2061C136.077 11.2061 136.565 11.3907 136.953 11.7612C137.437 12.2149 137.677 12.8922 137.677 13.7918V17.463V17.463Z" fill="white"/>
<path d="M147.081 12.3553H145.543V15.3323C145.543 16.0889 145.816 16.4672 146.357 16.4672C146.608 16.4672 146.816 16.4464 146.98 16.4035L147.016 17.437C146.74 17.5384 146.377 17.5891 145.931 17.5891C145.379 17.5891 144.949 17.4253 144.639 17.0977C144.327 16.7701 144.172 16.2189 144.172 15.4454V12.3553H143.253V11.3348H144.172V10.2116L145.541 9.80859V11.3335H147.08V12.3553H147.081Z" fill="white"/>
<path d="M154.479 17.463H153.08V13.979C153.08 12.8805 152.659 12.3306 151.815 12.3306C151.167 12.3306 150.724 12.6491 150.481 13.2861C150.44 13.42 150.416 13.5838 150.416 13.7762V17.4617H149.02V8.52295H150.416V12.2162H150.443C150.883 11.5441 151.513 11.2087 152.331 11.2087C152.909 11.2087 153.388 11.3933 153.768 11.7638C154.241 12.2253 154.479 12.9117 154.479 13.8191V17.463V17.463Z" fill="white"/>
<path d="M162.109 14.1089C162.109 14.3533 162.091 14.5587 162.057 14.7264H157.867C157.885 15.3322 158.085 15.7937 158.473 16.1135C158.828 16.3995 159.285 16.5425 159.845 16.5425C160.465 16.5425 161.031 16.4463 161.54 16.2526L161.759 17.199C161.163 17.4512 160.461 17.5773 159.649 17.5773C158.676 17.5773 157.909 17.2978 157.355 16.7388C156.797 16.1798 156.521 15.4297 156.521 14.4885C156.521 13.5642 156.779 12.7946 157.297 12.181C157.839 11.5258 158.571 11.1982 159.495 11.1982C160.399 11.1982 161.085 11.5258 161.549 12.181C161.924 12.701 162.109 13.3445 162.109 14.1089ZM160.776 13.7566C160.787 13.3523 160.695 13.0039 160.505 12.7101C160.263 12.3318 159.893 12.142 159.393 12.142C158.937 12.142 158.565 12.3266 158.281 12.6971C158.049 12.9922 157.912 13.3445 157.867 13.7566H160.776Z" fill="white"/>
<path d="M72.0266 40.9552H68.9986L67.34 35.8735H61.5746L59.9946 40.9552H57.0466L62.7586 23.6548H66.2866L72.0266 40.9552ZM66.84 33.7415L65.34 29.224C65.1813 28.7625 64.884 27.6757 64.4453 25.9649H64.392C64.2173 26.7007 63.936 27.7875 63.5493 29.224L62.076 33.7415H66.84V33.7415Z" fill="white"/>
<path d="M86.716 34.5647C86.716 36.6863 86.128 38.3633 84.952 39.5944C83.8987 40.6903 82.5907 41.2376 81.0293 41.2376C79.344 41.2376 78.1333 40.6474 77.396 39.467H77.3427V46.0385H74.5V32.5874C74.5 31.2536 74.464 29.8847 74.3947 28.4807H76.8947L77.0533 30.458H77.1067C78.0547 28.9682 79.4933 28.2246 81.424 28.2246C82.9333 28.2246 84.1933 28.8057 85.2013 29.9692C86.212 31.134 86.716 32.6654 86.716 34.5647ZM83.82 34.6661C83.82 33.4519 83.54 32.4509 82.9773 31.6631C82.3627 30.8415 81.5373 30.4307 80.5027 30.4307C79.8013 30.4307 79.164 30.6595 78.5947 31.1106C78.024 31.5656 77.6506 32.1597 77.476 32.8955C77.388 33.2387 77.344 33.5195 77.344 33.7405V35.8205C77.344 36.7279 77.6293 37.4936 78.2 38.1189C78.7707 38.7442 79.512 39.0562 80.424 39.0562C81.4947 39.0562 82.328 38.6532 82.924 37.8498C83.5213 37.0451 83.82 35.9843 83.82 34.6661Z" fill="white"/>
<path d="M101.432 34.5647C101.432 36.6863 100.844 38.3633 99.6666 39.5944C98.6146 40.6903 97.3066 41.2376 95.7453 41.2376C94.0599 41.2376 92.8493 40.6474 92.1133 39.467H92.0599V46.0385H89.2173V32.5874C89.2173 31.2536 89.1813 29.8847 89.1119 28.4807H91.6119L91.7706 30.458H91.8239C92.7706 28.9682 94.2093 28.2246 96.1413 28.2246C97.6493 28.2246 98.9093 28.8057 99.9199 29.9692C100.927 31.134 101.432 32.6654 101.432 34.5647ZM98.5359 34.6661C98.5359 33.4519 98.2546 32.4509 97.6919 31.6631C97.0773 30.8415 96.2546 30.4307 95.2186 30.4307C94.5159 30.4307 93.8799 30.6595 93.3093 31.1106C92.7386 31.5656 92.3666 32.1597 92.1919 32.8955C92.1053 33.2387 92.0599 33.5195 92.0599 33.7405V35.8205C92.0599 36.7279 92.3453 37.4936 92.9133 38.1189C93.4839 38.7429 94.2253 39.0562 95.1399 39.0562C96.2106 39.0562 97.0439 38.6532 97.6399 37.8498C98.2373 37.0451 98.5359 35.9843 98.5359 34.6661Z" fill="white"/>
<path d="M117.885 36.1037C117.885 37.5753 117.361 38.7726 116.309 39.6969C115.153 40.707 113.544 41.2114 111.476 41.2114C109.567 41.2114 108.036 40.8526 106.877 40.1337L107.536 37.8236C108.784 38.5594 110.153 38.9286 111.645 38.9286C112.716 38.9286 113.549 38.692 114.148 38.2214C114.744 37.7508 115.041 37.119 115.041 36.3312C115.041 35.6292 114.796 35.0377 114.304 34.558C113.815 34.0783 112.997 33.6324 111.856 33.2203C108.749 32.0906 107.197 30.4357 107.197 28.2595C107.197 26.8373 107.741 25.6712 108.831 24.7638C109.916 23.8551 111.364 23.4014 113.175 23.4014C114.789 23.4014 116.131 23.6757 117.201 24.223L116.491 26.4824C115.491 25.952 114.36 25.6868 113.095 25.6868C112.095 25.6868 111.313 25.9273 110.753 26.4057C110.28 26.8334 110.043 27.3547 110.043 27.9722C110.043 28.656 110.313 29.2215 110.857 29.6661C111.331 30.0769 112.191 30.5215 113.439 31.0012C114.965 31.6005 116.087 32.3012 116.808 33.1046C117.527 33.9054 117.885 34.9077 117.885 36.1037Z" fill="white"/>
<path d="M127.284 30.5604H124.151V36.6171C124.151 38.1576 124.703 38.9272 125.809 38.9272C126.317 38.9272 126.739 38.8843 127.072 38.7985L127.151 40.9032C126.591 41.1073 125.853 41.21 124.94 41.21C123.817 41.21 122.94 40.8759 122.307 40.209C121.676 39.5408 121.359 38.4202 121.359 36.8459V30.5578H119.492V28.4778H121.359V26.1937L124.151 25.3721V28.4778H127.284V30.5604Z" fill="white"/>
<path d="M141.421 34.6151C141.421 36.5326 140.859 38.1069 139.736 39.338C138.559 40.6055 136.996 41.2373 135.048 41.2373C133.171 41.2373 131.676 40.6302 130.561 39.416C129.447 38.2018 128.889 36.6691 128.889 34.8218C128.889 32.8887 129.463 31.3053 130.613 30.0742C131.761 28.8418 133.311 28.2256 135.259 28.2256C137.136 28.2256 138.647 28.8327 139.787 30.0482C140.877 31.2273 141.421 32.7496 141.421 34.6151ZM138.472 34.7048C138.472 33.5543 138.22 32.5676 137.709 31.7447C137.113 30.7489 136.261 30.2523 135.157 30.2523C134.015 30.2523 133.147 30.7502 132.551 31.7447C132.04 32.5689 131.788 33.5712 131.788 34.7568C131.788 35.9073 132.04 36.894 132.551 37.7156C133.165 38.7114 134.024 39.208 135.132 39.208C136.217 39.208 137.069 38.701 137.684 37.6896C138.208 36.8511 138.472 35.854 138.472 34.7048Z" fill="white"/>
<path d="M150.661 30.9182C150.38 30.8675 150.08 30.8415 149.765 30.8415C148.765 30.8415 147.992 31.2094 147.448 31.9465C146.975 32.5965 146.737 33.4181 146.737 34.41V40.9555H143.896L143.923 32.4093C143.923 30.9715 143.887 29.6624 143.816 28.482H146.292L146.396 30.8688H146.475C146.775 30.0485 147.248 29.3881 147.896 28.8928C148.529 28.4469 149.213 28.2246 149.951 28.2246C150.213 28.2246 150.451 28.2428 150.661 28.2753V30.9182Z" fill="white"/>
<path d="M163.375 34.1279C163.375 34.6245 163.341 35.0431 163.271 35.385H154.743C154.776 36.6174 155.188 37.5599 155.98 38.2099C156.699 38.791 157.628 39.0822 158.769 39.0822C160.032 39.0822 161.184 38.8859 162.22 38.492L162.665 40.416C161.455 40.9308 160.025 41.1869 158.376 41.1869C156.392 41.1869 154.835 40.6175 153.701 39.48C152.571 38.3425 152.004 36.815 152.004 34.8988C152.004 33.0177 152.531 31.4512 153.585 30.2019C154.689 28.8681 156.181 28.2012 158.059 28.2012C159.903 28.2012 161.299 28.8681 162.247 30.2019C162.997 31.2614 163.375 32.5718 163.375 34.1279ZM160.664 33.409C160.683 32.5874 160.497 31.8776 160.112 31.2783C159.62 30.5074 158.864 30.1226 157.847 30.1226C156.917 30.1226 156.161 30.4983 155.584 31.2523C155.111 31.8516 154.829 32.5705 154.743 33.4077H160.664V33.409Z" fill="white"/>
</svg>
