<svg width="121" height="121" viewBox="0 0 121 121" fill="none" xmlns="http://www.w3.org/2000/svg">
<g filter="url(#filter0_d_834_12047)">
<rect x="29" y="2" width="63" height="63" rx="7" fill="white" shape-rendering="crispEdges"/>
<path d="M59.7929 47.2071C60.1834 47.5976 60.8166 47.5976 61.2071 47.2071L67.5711 40.8431C67.9616 40.4526 67.9616 39.8195 67.5711 39.4289C67.1805 39.0384 66.5474 39.0384 66.1569 39.4289L60.5 45.0858L54.8431 39.4289C54.4526 39.0384 53.8195 39.0384 53.4289 39.4289C53.0384 39.8195 53.0384 40.4526 53.4289 40.8431L59.7929 47.2071ZM59.5 20.5L59.5 46.5L61.5 46.5L61.5 20.5L59.5 20.5Z" fill="#94A3B8"/>
</g>
<defs>
<filter id="filter0_d_834_12047" x="0" y="0" width="121" height="121" filterUnits="userSpaceOnUse" color-interpolation-filters="sRGB">
<feFlood flood-opacity="0" result="BackgroundImageFix"/>
<feColorMatrix in="SourceAlpha" type="matrix" values="0 0 0 0 0 0 0 0 0 0 0 0 0 0 0 0 0 0 127 0" result="hardAlpha"/>
<feOffset dy="27"/>
<feGaussianBlur stdDeviation="14.5"/>
<feComposite in2="hardAlpha" operator="out"/>
<feColorMatrix type="matrix" values="0 0 0 0 0.458333 0 0 0 0 0.458333 0 0 0 0 0.458333 0 0 0 0.08 0"/>
<feBlend mode="normal" in2="BackgroundImageFix" result="effect1_dropShadow_834_12047"/>
<feBlend mode="normal" in="SourceGraphic" in2="effect1_dropShadow_834_12047" result="shape"/>
</filter>
</defs>
</svg>
