<svg width="120" height="20" viewBox="0 0 120 20" fill="none" xmlns="http://www.w3.org/2000/svg">
<path d="M9.04897 2.92702C9.34897 2.00602 10.652 2.00602 10.951 2.92702L12.021 6.21902C12.0863 6.41951 12.2134 6.5942 12.384 6.71812C12.5547 6.84205 12.7601 6.90886 12.971 6.90902H16.433C17.402 6.90902 17.804 8.14902 17.021 8.71902L14.221 10.753C14.05 10.877 13.9227 11.052 13.8573 11.2529C13.7919 11.4537 13.7918 11.6701 13.857 11.871L14.927 15.163C15.227 16.084 14.172 16.851 13.387 16.281L10.587 14.247C10.4162 14.123 10.2105 14.0562 9.99947 14.0562C9.78842 14.0562 9.58277 14.123 9.41197 14.247L6.61197 16.281C5.82797 16.851 4.77397 16.084 5.07297 15.163L6.14297 11.871C6.20815 11.6701 6.20803 11.4537 6.14264 11.2529C6.07725 11.052 5.94994 10.877 5.77897 10.753L2.97997 8.72002C2.19697 8.15002 2.59997 6.91002 3.56797 6.91002H7.02897C7.24002 6.91007 7.44568 6.84336 7.6165 6.71942C7.78732 6.59548 7.91455 6.42067 7.97997 6.22002L9.04997 2.92802L9.04897 2.92702Z" fill="#FCB500"/>
<path d="M34.049 2.92702C34.349 2.00602 35.652 2.00602 35.951 2.92702L37.021 6.21902C37.0863 6.41951 37.2134 6.5942 37.384 6.71812C37.5547 6.84205 37.7601 6.90886 37.971 6.90902H41.433C42.402 6.90902 42.804 8.14902 42.021 8.71902L39.221 10.753C39.05 10.877 38.9227 11.052 38.8573 11.2529C38.7919 11.4537 38.7918 11.6701 38.857 11.871L39.927 15.163C40.227 16.084 39.172 16.851 38.387 16.281L35.587 14.247C35.4162 14.123 35.2105 14.0562 34.9995 14.0562C34.7884 14.0562 34.5828 14.123 34.412 14.247L31.612 16.281C30.828 16.851 29.774 16.084 30.073 15.163L31.143 11.871C31.2081 11.6701 31.208 11.4537 31.1426 11.2529C31.0773 11.052 30.9499 10.877 30.779 10.753L27.98 8.72002C27.197 8.15002 27.6 6.91002 28.568 6.91002H32.029C32.24 6.91007 32.4457 6.84336 32.6165 6.71942C32.7873 6.59548 32.9145 6.42067 32.98 6.22002L34.05 2.92802L34.049 2.92702Z" fill="#FCB500"/>
<path d="M59.049 2.92702C59.349 2.00602 60.652 2.00602 60.951 2.92702L62.021 6.21902C62.0863 6.41951 62.2134 6.5942 62.384 6.71812C62.5547 6.84205 62.7601 6.90886 62.971 6.90902H66.433C67.402 6.90902 67.804 8.14902 67.021 8.71902L64.221 10.753C64.05 10.877 63.9227 11.052 63.8573 11.2529C63.7919 11.4537 63.7918 11.6701 63.857 11.871L64.927 15.163C65.227 16.084 64.172 16.851 63.387 16.281L60.587 14.247C60.4162 14.123 60.2105 14.0562 59.9995 14.0562C59.7884 14.0562 59.5828 14.123 59.412 14.247L56.612 16.281C55.828 16.851 54.774 16.084 55.073 15.163L56.143 11.871C56.2081 11.6701 56.208 11.4537 56.1426 11.2529C56.0773 11.052 55.9499 10.877 55.779 10.753L52.98 8.72002C52.197 8.15002 52.6 6.91002 53.568 6.91002H57.029C57.24 6.91007 57.4457 6.84336 57.6165 6.71942C57.7873 6.59548 57.9145 6.42067 57.98 6.22002L59.05 2.92802L59.049 2.92702Z" fill="#FCB500"/>
<path d="M84.049 2.92702C84.349 2.00602 85.652 2.00602 85.951 2.92702L87.021 6.21902C87.0863 6.41951 87.2134 6.5942 87.384 6.71812C87.5547 6.84205 87.7601 6.90886 87.971 6.90902H91.433C92.402 6.90902 92.804 8.14902 92.021 8.71902L89.221 10.753C89.05 10.877 88.9227 11.052 88.8573 11.2529C88.7919 11.4537 88.7918 11.6701 88.857 11.871L89.927 15.163C90.227 16.084 89.172 16.851 88.387 16.281L85.587 14.247C85.4162 14.123 85.2105 14.0562 84.9995 14.0562C84.7884 14.0562 84.5828 14.123 84.412 14.247L81.612 16.281C80.828 16.851 79.774 16.084 80.073 15.163L81.143 11.871C81.2081 11.6701 81.208 11.4537 81.1426 11.2529C81.0773 11.052 80.9499 10.877 80.779 10.753L77.98 8.72002C77.197 8.15002 77.6 6.91002 78.568 6.91002H82.029C82.24 6.91007 82.4457 6.84336 82.6165 6.71942C82.7873 6.59548 82.9145 6.42067 82.98 6.22002L84.05 2.92802L84.049 2.92702Z" fill="#FCB500"/>
<path d="M109.049 2.92702C109.349 2.00602 110.652 2.00602 110.951 2.92702L112.021 6.21902C112.086 6.41951 112.213 6.5942 112.384 6.71812C112.555 6.84205 112.76 6.90886 112.971 6.90902H116.433C117.402 6.90902 117.804 8.14902 117.021 8.71902L114.221 10.753C114.05 10.877 113.923 11.052 113.857 11.2529C113.792 11.4537 113.792 11.6701 113.857 11.871L114.927 15.163C115.227 16.084 114.172 16.851 113.387 16.281L110.587 14.247C110.416 14.123 110.211 14.0562 109.999 14.0562C109.788 14.0562 109.583 14.123 109.412 14.247L106.612 16.281C105.828 16.851 104.774 16.084 105.073 15.163L106.143 11.871C106.208 11.6701 106.208 11.4537 106.143 11.2529C106.077 11.052 105.95 10.877 105.779 10.753L102.98 8.72002C102.197 8.15002 102.6 6.91002 103.568 6.91002H107.029C107.24 6.91007 107.446 6.84336 107.616 6.71942C107.787 6.59548 107.915 6.42067 107.98 6.22002L109.05 2.92802L109.049 2.92702Z" fill="#FCB500"/>
</svg>
