<svg width="181" height="52" viewBox="0 0 181 52" fill="none" xmlns="http://www.w3.org/2000/svg">
<path d="M173.833 52H7.16667C3.50167 52 0.5 49.0734 0.5 45.5V6.5C0.5 2.92663 3.50167 2.74817e-06 7.16667 2.74817e-06H173.833C177.498 2.74817e-06 180.5 2.92663 180.5 6.5V45.5C180.5 49.0734 177.498 52 173.833 52Z" fill="black"/>
<path d="M173.833 1.04163C176.92 1.04163 179.432 3.4905 179.432 6.5V45.5C179.432 48.5095 176.92 50.9584 173.833 50.9584H7.16667C4.08 50.9584 1.56833 48.5095 1.56833 45.5V6.5C1.56833 3.4905 4.08 1.04163 7.16667 1.04163H173.833ZM173.833 2.74817e-06H7.16667C3.50167 2.74817e-06 0.5 2.92663 0.5 6.5V45.5C0.5 49.0734 3.50167 52 7.16667 52H173.833C177.498 52 180.5 49.0734 180.5 45.5V6.5C180.5 2.92663 177.498 2.74817e-06 173.833 2.74817e-06Z" fill="#A6A6A6"/>
<path d="M14.4134 9.80044C14.0217 10.2002 13.795 10.8226 13.795 11.6286V40.3781C13.795 41.1841 14.0217 41.8064 14.4134 42.2062L14.51 42.2939L31.0334 26.1902V25.8099L14.51 9.7062L14.4134 9.80044Z" fill="url(#paint0_linear_834_11889)"/>
<path d="M36.535 31.5605L31.0333 26.1899V25.8097L36.5417 20.439L36.665 20.5089L43.1883 24.1278C45.05 25.1548 45.05 26.8448 43.1883 27.8783L36.665 31.4907L36.535 31.5605V31.5605Z" fill="url(#paint1_linear_834_11889)"/>
<path d="M36.665 31.4907L31.0333 25.9998L14.4133 42.206C15.0317 42.8397 16.04 42.9161 17.1867 42.2823L36.665 31.4907" fill="url(#paint2_linear_834_11889)"/>
<path d="M36.665 20.5091L17.1867 9.7175C16.04 9.09025 15.0317 9.16663 14.4133 9.80038L31.0333 26L36.665 20.5091Z" fill="url(#paint3_linear_834_11889)"/>
<path d="M63.7233 13.3172C63.7233 14.4027 63.39 15.2721 62.7333 15.9204C61.9783 16.6891 60.995 17.0758 59.79 17.0758C58.6383 17.0758 57.655 16.6826 56.8483 15.9074C56.04 15.1209 55.6367 14.1557 55.6367 13.0003C55.6367 11.8449 56.04 10.8797 56.8483 10.0997C57.655 9.31806 58.6383 8.9248 59.79 8.9248C60.3633 8.9248 60.91 9.04018 61.4317 9.25468C61.9517 9.4708 62.375 9.7633 62.6817 10.1241L61.985 10.8098C61.45 10.1939 60.7217 9.89006 59.79 9.89006C58.95 9.89006 58.2217 10.1761 57.6033 10.7529C56.9917 11.3314 56.685 12.0806 56.685 13.0003C56.685 13.9201 56.9917 14.6757 57.6033 15.2542C58.2217 15.8246 58.95 16.1171 59.79 16.1171C60.6817 16.1171 61.4317 15.8246 62.0233 15.2477C62.4133 14.8658 62.635 14.3393 62.6933 13.6666H59.79V12.7273H63.6633C63.71 12.9304 63.7233 13.1271 63.7233 13.3172V13.3172Z" fill="white" stroke="white" stroke-width="0.16" stroke-miterlimit="10"/>
<path d="M69.8683 10.0606H66.23V12.5306H69.51V13.4699H66.23V15.9399H69.8683V16.897H65.2V9.10352H69.8683V10.0606Z" fill="white" stroke="white" stroke-width="0.16" stroke-miterlimit="10"/>
<path d="M74.205 16.897H73.175V10.0606H70.9433V9.10352H76.4383V10.0606H74.205V16.897V16.897Z" fill="white" stroke="white" stroke-width="0.16" stroke-miterlimit="10"/>
<path d="M80.415 16.897V9.10352H81.4434V16.897H80.415Z" fill="white" stroke="white" stroke-width="0.16" stroke-miterlimit="10"/>
<path d="M86.0016 16.897H84.98V10.0606H82.74V9.10352H88.2416V10.0606H86.0016V16.897Z" fill="white" stroke="white" stroke-width="0.16" stroke-miterlimit="10"/>
<path d="M98.645 15.8944C97.8566 16.6826 96.88 17.0758 95.715 17.0758C94.5433 17.0758 93.5666 16.6826 92.7783 15.8944C91.9916 15.1079 91.6 14.1427 91.6 13.0003C91.6 11.8579 91.9916 10.8927 92.7783 10.1062C93.5666 9.31805 94.5433 8.9248 95.715 8.9248C96.8733 8.9248 97.85 9.31805 98.6383 10.1127C99.4317 10.9057 99.8233 11.8644 99.8233 13.0003C99.8233 14.1427 99.4316 15.1079 98.645 15.8944ZM93.54 15.2412C94.1333 15.8246 94.855 16.1171 95.715 16.1171C96.5683 16.1171 97.2966 15.8246 97.8833 15.2412C98.475 14.6578 98.775 13.9087 98.775 13.0003C98.775 12.0919 98.475 11.3428 97.8833 10.7594C97.2966 10.1761 96.5683 9.88355 95.715 9.88355C94.855 9.88355 94.1333 10.1761 93.54 10.7594C92.9483 11.3428 92.6483 12.0919 92.6483 13.0003C92.6483 13.9087 92.9483 14.6578 93.54 15.2412V15.2412Z" fill="white" stroke="white" stroke-width="0.16" stroke-miterlimit="10"/>
<path d="M101.268 16.897V9.10352H102.518L106.405 15.1648H106.45L106.405 13.6665V9.10352H107.433V16.897H106.36L102.29 10.5368H102.245L102.29 12.0415V16.897H101.268V16.897Z" fill="white" stroke="white" stroke-width="0.16" stroke-miterlimit="10"/>
<path d="M91.3466 28.2783C88.215 28.2783 85.6566 30.602 85.6566 33.8082C85.6566 36.9883 88.215 39.3364 91.3466 39.3364C94.485 39.3364 97.0433 36.9883 97.0433 33.8082C97.0433 30.602 94.485 28.2783 91.3466 28.2783ZM91.3466 37.1589C89.6283 37.1589 88.15 35.776 88.15 33.8082C88.15 31.8143 89.6283 30.4558 91.3466 30.4558C93.065 30.4558 94.55 31.8143 94.55 33.8082C94.55 35.776 93.065 37.1589 91.3466 37.1589V37.1589ZM78.9316 28.2783C75.7933 28.2783 73.2416 30.602 73.2416 33.8082C73.2416 36.9883 75.7933 39.3364 78.9316 39.3364C82.0683 39.3364 84.6216 36.9883 84.6216 33.8082C84.6216 30.602 82.0683 28.2783 78.9316 28.2783ZM78.9316 37.1589C77.2116 37.1589 75.7283 35.776 75.7283 33.8082C75.7283 31.8143 77.2116 30.4558 78.9316 30.4558C80.65 30.4558 82.1283 31.8143 82.1283 33.8082C82.1283 35.776 80.65 37.1589 78.9316 37.1589ZM64.1583 29.9732V32.3229H69.9133C69.745 33.6359 69.295 34.6012 68.605 35.2739C67.765 36.0864 66.4566 36.9883 64.1583 36.9883C60.6166 36.9883 57.8433 34.2014 57.8433 30.7483C57.8433 27.2952 60.6166 24.5083 64.1583 24.5083C66.0733 24.5083 67.4666 25.2379 68.495 26.1837L70.1933 24.5278C68.755 23.1888 66.8416 22.1602 64.1583 22.1602C59.3016 22.1602 55.22 26.013 55.22 30.7483C55.22 35.4835 59.3016 39.3364 64.1583 39.3364C66.7833 39.3364 68.755 38.4979 70.305 36.9249C71.8933 35.3763 72.3883 33.1988 72.3883 31.4405C72.3883 30.8945 72.3416 30.3924 72.2583 29.9732H64.1583ZM124.568 31.7948C124.1 30.5582 122.655 28.2783 119.712 28.2783C116.795 28.2783 114.367 30.5192 114.367 33.8082C114.367 36.9054 116.77 39.3364 119.992 39.3364C122.597 39.3364 124.1 37.7878 124.718 36.8859L122.785 35.6298C122.14 36.5495 121.262 37.1589 119.992 37.1589C118.73 37.1589 117.825 36.595 117.245 35.4835L124.83 32.4237L124.568 31.7948V31.7948ZM116.835 33.6359C116.77 31.5039 118.533 30.4119 119.797 30.4119C120.787 30.4119 121.627 30.8945 121.907 31.5852L116.835 33.6359V33.6359ZM110.67 39H113.163V22.75H110.67V39ZM106.587 29.51H106.503C105.943 28.8633 104.875 28.2783 103.522 28.2783C100.682 28.2783 98.085 30.7093 98.085 33.826C98.085 36.9249 100.682 39.3364 103.522 39.3364C104.875 39.3364 105.943 38.7465 106.503 38.0803H106.587V38.8733C106.587 40.9874 105.428 42.1233 103.56 42.1233C102.037 42.1233 101.092 41.0508 100.702 40.1489L98.5333 41.0313C99.1583 42.497 100.813 44.3008 103.56 44.3008C106.483 44.3008 108.95 42.6238 108.95 38.5434V28.6147H106.587V29.51V29.51ZM103.735 37.1589C102.017 37.1589 100.578 35.7565 100.578 33.826C100.578 31.8777 102.017 30.4558 103.735 30.4558C105.428 30.4558 106.763 31.8777 106.763 33.826C106.763 35.7565 105.428 37.1589 103.735 37.1589V37.1589ZM136.242 22.75H130.278V39H132.765V32.8429H136.242C139.003 32.8429 141.712 30.8945 141.712 27.7957C141.712 24.6984 138.997 22.75 136.242 22.75V22.75ZM136.307 30.5825H132.765V25.0104H136.307C138.163 25.0104 139.223 26.5135 139.223 27.7957C139.223 29.0534 138.163 30.5825 136.307 30.5825ZM151.678 28.2474C149.882 28.2474 148.013 29.0209 147.245 30.7353L149.452 31.6372C149.927 30.7353 150.8 30.4428 151.723 30.4428C153.013 30.4428 154.322 31.1984 154.342 32.5325V32.7032C153.892 32.4497 152.928 32.0743 151.743 32.0743C149.367 32.0743 146.945 33.3499 146.945 35.7305C146.945 37.908 148.892 39.3104 151.08 39.3104C152.753 39.3104 153.677 38.5743 154.257 37.7179H154.342V38.974H156.743V32.7405C156.743 29.8594 154.537 28.2474 151.678 28.2474ZM151.378 37.1524C150.565 37.1524 149.432 36.7592 149.432 35.776C149.432 34.5183 150.845 34.0357 152.068 34.0357C153.163 34.0357 153.677 34.2713 154.342 34.5817C154.147 36.0864 152.818 37.1524 151.378 37.1524V37.1524ZM165.493 28.6033L162.635 35.6477H162.55L159.595 28.6033H156.913L161.353 38.4475L158.82 43.9254H161.418L168.26 28.6033H165.493V28.6033ZM143.078 39H145.572V22.75H143.078V39Z" fill="white"/>
<defs>
<linearGradient id="paint0_linear_834_11889" x1="29.5663" y1="40.6775" x2="7.75617" y2="18.3081" gradientUnits="userSpaceOnUse">
<stop stop-color="#00A0FF"/>
<stop offset="0.0066" stop-color="#00A1FF"/>
<stop offset="0.2601" stop-color="#00BEFF"/>
<stop offset="0.5122" stop-color="#00D2FF"/>
<stop offset="0.7604" stop-color="#00DFFF"/>
<stop offset="1" stop-color="#00E3FF"/>
</linearGradient>
<linearGradient id="paint1_linear_834_11889" x1="45.6125" y1="25.998" x2="13.35" y2="25.998" gradientUnits="userSpaceOnUse">
<stop stop-color="#FFE000"/>
<stop offset="0.4087" stop-color="#FFBD00"/>
<stop offset="0.7754" stop-color="#FFA500"/>
<stop offset="1" stop-color="#FF9C00"/>
</linearGradient>
<linearGradient id="paint2_linear_834_11889" x1="33.6027" y1="23.0149" x2="4.02635" y2="-7.31976" gradientUnits="userSpaceOnUse">
<stop stop-color="#FF3A44"/>
<stop offset="1" stop-color="#C31162"/>
</linearGradient>
<linearGradient id="paint3_linear_834_11889" x1="10.2297" y1="51.7709" x2="23.4369" y2="38.2253" gradientUnits="userSpaceOnUse">
<stop stop-color="#32A071"/>
<stop offset="0.0685" stop-color="#2DA771"/>
<stop offset="0.4762" stop-color="#15CF74"/>
<stop offset="0.8009" stop-color="#06E775"/>
<stop offset="1" stop-color="#00F076"/>
</linearGradient>
</defs>
</svg>
