<svg width="32" height="31" viewBox="0 0 32 31" fill="none" xmlns="http://www.w3.org/2000/svg">
<path fill-rule="evenodd" clip-rule="evenodd" d="M16.0753 0C7.73759 0 0.978516 6.75908 0.978516 15.0968C0.978516 23.4346 7.73759 30.1936 16.0753 30.1936C24.4131 30.1936 31.1722 23.4346 31.1722 15.0968C31.1722 6.75908 24.4131 0 16.0753 0ZM12.7578 7.09406C13.6166 7.05497 13.8911 7.04541 16.0778 7.04541H16.0753C18.2627 7.04541 18.5361 7.05497 19.3949 7.09406C20.2521 7.13331 20.8375 7.26901 21.3508 7.46813C21.8809 7.67361 22.3288 7.94871 22.7766 8.39659C23.2245 8.84413 23.4996 9.29335 23.7059 9.82292C23.9039 10.3349 24.0398 10.92 24.08 11.7771C24.1186 12.636 24.1287 12.9104 24.1287 15.0971C24.1287 17.2838 24.1186 17.5576 24.08 18.4165C24.0398 19.2733 23.9039 19.8585 23.7059 20.3707C23.4996 20.9001 23.2245 21.3493 22.7766 21.7968C22.3293 22.2447 21.8807 22.5205 21.3513 22.7261C20.839 22.9252 20.2533 23.061 19.3961 23.1002C18.5372 23.1393 18.2637 23.1489 16.0768 23.1489C13.8902 23.1489 13.616 23.1393 12.7571 23.1002C11.9001 23.061 11.3149 22.9252 10.8026 22.7261C10.2733 22.5205 9.82411 22.2447 9.37674 21.7968C8.92903 21.3493 8.65393 20.9001 8.44811 20.3705C8.24916 19.8585 8.11346 19.2735 8.07404 18.4163C8.03512 17.5574 8.02539 17.2838 8.02539 15.0971C8.02539 12.9104 8.03546 12.6358 8.07387 11.777C8.11245 10.9201 8.24832 10.3349 8.44794 9.82275C8.65426 9.29335 8.92936 8.84413 9.37724 8.39659C9.82478 7.94888 10.274 7.67378 10.8036 7.46813C11.3155 7.26901 11.9006 7.13331 12.7578 7.09406Z" fill="white"/>
<path fill-rule="evenodd" clip-rule="evenodd" d="M15.355 8.49615C15.4952 8.49593 15.6461 8.496 15.8089 8.49607L16.0773 8.49615C18.2271 8.49615 18.4819 8.50387 19.3309 8.54245C20.1159 8.57835 20.542 8.70952 20.8258 8.81973C21.2015 8.96567 21.4694 9.14012 21.7511 9.42193C22.0329 9.70374 22.2073 9.97213 22.3536 10.3479C22.4638 10.6314 22.5952 11.0574 22.6309 11.8425C22.6695 12.6913 22.6779 12.9462 22.6779 15.095C22.6779 17.2438 22.6695 17.4988 22.6309 18.3476C22.595 19.1326 22.4638 19.5587 22.3536 19.8422C22.2077 20.218 22.0329 20.4855 21.7511 20.7671C21.4693 21.049 21.2017 21.2234 20.8258 21.3693C20.5423 21.4801 20.1159 21.6109 19.3309 21.6468C18.4821 21.6854 18.2271 21.6938 16.0773 21.6938C13.9273 21.6938 13.6725 21.6854 12.8237 21.6468C12.0387 21.6106 11.6126 21.4794 11.3286 21.3692C10.9529 21.2232 10.6845 21.0488 10.4027 20.767C10.1209 20.4852 9.94641 20.2174 9.80014 19.8415C9.68993 19.558 9.55859 19.132 9.52286 18.3469C9.48428 17.4981 9.47656 17.2432 9.47656 15.093C9.47656 12.9429 9.48428 12.6893 9.52286 11.8405C9.55876 11.0554 9.68993 10.6294 9.80014 10.3455C9.94608 9.96979 10.1209 9.7014 10.4027 9.41959C10.6845 9.13778 10.9529 8.96332 11.3286 8.81705C11.6124 8.70634 12.0387 8.5755 12.8237 8.53943C13.5665 8.50588 13.8544 8.49582 15.355 8.49414V8.49615ZM20.3744 9.8331C19.841 9.8331 19.4082 10.2654 19.4082 10.799C19.4082 11.3324 19.841 11.7652 20.3744 11.7652C20.9078 11.7652 21.3406 11.3324 21.3406 10.799C21.3406 10.2655 20.9078 9.83276 20.3744 9.83276V9.8331ZM11.9414 15.0968C11.9414 12.8134 13.7927 10.962 16.0761 10.9619C18.3596 10.9619 20.2105 12.8133 20.2105 15.0968C20.2105 17.3803 18.3598 19.2309 16.0763 19.2309C13.7928 19.2309 11.9414 17.3803 11.9414 15.0968Z" fill="white"/>
<path d="M16.0767 12.4128C17.5589 12.4128 18.7606 13.6144 18.7606 15.0967C18.7606 16.5789 17.5589 17.7807 16.0767 17.7807C14.5944 17.7807 13.3928 16.5789 13.3928 15.0967C13.3928 13.6144 14.5944 12.4128 16.0767 12.4128Z" fill="white"/>
</svg>
