<svg width="31" height="31" viewBox="0 0 31 31" fill="none" xmlns="http://www.w3.org/2000/svg">
<path fill-rule="evenodd" clip-rule="evenodd" d="M15.4626 0.000244141C7.12486 0.000244141 0.365784 6.75932 0.365784 15.0971C0.365784 23.4348 7.12486 30.1939 15.4626 30.1939C23.8004 30.1939 30.5594 23.4348 30.5594 15.0971C30.5594 6.75932 23.8004 0.000244141 15.4626 0.000244141ZM7.61371 12.5042H11.035V22.7836H7.61371V12.5042ZM11.2616 9.32391C11.2394 8.31602 10.5186 7.54834 9.34822 7.54834C8.17782 7.54834 7.41266 8.31602 7.41266 9.32391C7.41266 10.3109 8.15521 11.1007 9.30381 11.1007H9.32567C10.5186 11.1007 11.2616 10.3109 11.2616 9.32391ZM19.4338 12.2627C21.6851 12.2627 23.3729 13.7322 23.3729 16.8896L23.3728 22.7836H19.9517V17.284C19.9517 15.9027 19.4566 14.9601 18.2181 14.9601C17.2729 14.9601 16.7099 15.5955 16.4626 16.2093C16.3722 16.4292 16.35 16.7357 16.35 17.0429V22.7838H12.9283C12.9283 22.7838 12.9734 13.4689 12.9283 12.5044H16.35V13.9604C16.804 13.2604 17.6173 12.2627 19.4338 12.2627Z" fill="white"/>
</svg>
