<svg width="32" height="31" viewBox="0 0 32 31" fill="none" xmlns="http://www.w3.org/2000/svg">
<path fill-rule="evenodd" clip-rule="evenodd" d="M16.0753 0.387451C7.73759 0.387451 0.978516 7.14653 0.978516 15.4843C0.978516 23.822 7.73759 30.5811 16.0753 30.5811C24.4131 30.5811 31.1722 23.822 31.1722 15.4843C31.1722 7.14653 24.4131 0.387451 16.0753 0.387451ZM8.22644 12.8914H11.6477V23.1709H8.22644V12.8914ZM11.8743 9.71112C11.8521 8.70322 11.1313 7.93555 9.96095 7.93555C8.79055 7.93555 8.02539 8.70322 8.02539 9.71112C8.02539 10.6981 8.76794 11.4879 9.91654 11.4879H9.9384C11.1313 11.4879 11.8743 10.6981 11.8743 9.71112ZM20.0465 12.6499C22.2979 12.6499 23.9857 14.1194 23.9857 17.2768L23.9855 23.1708H20.5644V17.6712C20.5644 16.2899 20.0693 15.3473 18.8308 15.3473C17.8856 15.3473 17.3226 15.9827 17.0754 16.5965C16.9849 16.8164 16.9627 17.1229 16.9627 17.4301V23.1711H13.541C13.541 23.1711 13.5861 13.8561 13.541 12.8916H16.9627V14.3476C17.4168 13.6476 18.23 12.6499 20.0465 12.6499Z" fill="#1E293B"/>
</svg>
