<svg width="50" height="35" viewBox="0 0 50 35" fill="none" xmlns="http://www.w3.org/2000/svg">
<path d="M45.7558 29.6435C50.4698 25.2147 49.9951 19.5274 49.9802 19.4625V2.1625C49.9802 1.58897 49.717 1.03893 49.2485 0.633382C48.78 0.227835 48.1446 0 47.482 0H32.4932C29.7378 0 27.497 1.93976 27.497 4.325V19.4625C27.497 20.036 27.7602 20.5861 28.2286 20.9916C28.6971 21.3972 29.3325 21.625 29.9951 21.625H37.6843C37.6316 22.6941 37.2626 23.7336 36.6126 24.6438C35.3436 26.376 32.9529 27.5589 29.503 28.1558L27.497 28.5017V34.6H29.9951C36.9474 34.6 42.2509 32.9327 45.7558 29.6435ZM18.2589 29.6435C22.9753 25.2147 22.4982 19.5274 22.4832 19.4625V2.1625C22.4832 1.58897 22.22 1.03893 21.7515 0.633382C21.283 0.227835 20.6476 0 19.9851 0H4.99627C2.24083 0 0 1.93976 0 4.325V19.4625C0 20.036 0.263195 20.5861 0.731686 20.9916C1.20018 21.3972 1.83559 21.625 2.49813 21.625H10.1874C10.1346 22.6941 9.7656 23.7336 9.11569 24.6438C7.84664 26.376 5.45592 27.5589 2.006 28.1558L0 28.5017V34.6H2.49813C9.45044 34.6 14.754 32.9327 18.2589 29.6435Z" fill="#45D09E" fill-opacity="0.2"/>
</svg>
