<svg width="32" height="31" viewBox="0 0 32 31" fill="none" xmlns="http://www.w3.org/2000/svg">
<path fill-rule="evenodd" clip-rule="evenodd" d="M16.0753 0.580811C7.73759 0.580811 0.978516 7.33989 0.978516 15.6776C0.978516 24.0154 7.73759 30.7745 16.0753 30.7745C24.4131 30.7745 31.1722 24.0154 31.1722 15.6776C31.1722 7.33989 24.4131 0.580811 16.0753 0.580811ZM15.6553 13.3741L15.6236 12.8517C15.5286 11.4978 16.3628 10.2611 17.6828 9.78137C18.1685 9.6108 18.9922 9.58947 19.5308 9.73873C19.742 9.80269 20.1432 10.0159 20.4284 10.2078L20.9458 10.5596L21.516 10.3784C21.8328 10.2824 22.2552 10.1225 22.4453 10.0159C22.6248 9.91996 22.7832 9.86666 22.7832 9.89864C22.7832 10.0799 22.3925 10.6982 22.0652 11.0394C21.6216 11.5191 21.7484 11.5617 22.6459 11.2419C23.1845 11.0607 23.1951 11.0607 23.0895 11.2632C23.0261 11.3698 22.6987 11.743 22.3503 12.0841C21.7589 12.6705 21.7272 12.7344 21.7272 13.2248C21.7272 13.9818 21.3682 15.5596 21.0092 16.4231C20.3439 18.0436 18.9183 19.7173 17.4927 20.5595C15.4863 21.7429 12.8147 22.0414 10.5654 21.3484C9.81565 21.1139 8.52734 20.5169 8.52734 20.4103C8.52734 20.3783 8.91806 20.3357 9.39326 20.325C10.3859 20.3037 11.3785 20.0265 12.2233 19.5361L12.7935 19.1949L12.1388 18.9711C11.2096 18.6512 10.3753 17.9156 10.1641 17.2227C10.1008 16.9988 10.1219 16.9881 10.7132 16.9881L11.3257 16.9775L10.8083 16.7323C10.1958 16.4231 9.63614 15.9007 9.36158 15.3677C9.16094 14.9839 8.9075 14.0137 8.98142 13.9391C9.00254 13.9071 9.2243 13.9711 9.47774 14.0564C10.2064 14.3229 10.3014 14.2589 9.87901 13.8112C9.08702 13.001 8.84414 11.7963 9.2243 10.6556L9.40382 10.1438L10.1008 10.8368C11.5264 12.2334 13.2054 13.0649 15.1273 13.3101L15.6553 13.3741Z" fill="#1E293B"/>
</svg>
