<svg width="31" height="31" viewBox="0 0 31 31" fill="none" xmlns="http://www.w3.org/2000/svg">
<path fill-rule="evenodd" clip-rule="evenodd" d="M15.6563 -0.000244141C7.31853 -0.000244141 0.559448 6.75883 0.559448 15.0966C0.559448 23.4343 7.31853 30.1934 15.6563 30.1934C23.994 30.1934 30.7531 23.4343 30.7531 15.0966C30.7531 6.75883 23.994 -0.000244141 15.6563 -0.000244141ZM15.2362 12.793L15.2045 12.2707C15.1095 10.9167 15.9437 9.68006 17.2637 9.20031C17.7495 9.02974 18.5732 9.00842 19.1117 9.15767C19.3229 9.22164 19.7242 9.43485 20.0093 9.62675L20.5267 9.97856L21.097 9.79733C21.4138 9.70138 21.8362 9.54146 22.0262 9.43485C22.2058 9.33891 22.3642 9.2856 22.3642 9.31758C22.3642 9.49882 21.9734 10.1172 21.6461 10.4583C21.2026 10.938 21.3293 10.9807 22.2269 10.6609C22.7654 10.4796 22.776 10.4796 22.6704 10.6822C22.607 10.7888 22.2797 11.1619 21.9312 11.5031C21.3398 12.0894 21.3082 12.1534 21.3082 12.6438C21.3082 13.4007 20.9491 14.9785 20.5901 15.8421C19.9248 17.4625 18.4992 19.1363 17.0736 19.9785C15.0673 21.1618 12.3956 21.4603 10.1463 20.7674C9.39659 20.5329 8.10828 19.9358 8.10828 19.8292C8.10828 19.7972 8.49899 19.7546 8.97419 19.7439C9.96682 19.7226 10.9595 19.4454 11.8042 18.955L12.3745 18.6139L11.7198 18.39C10.7905 18.0702 9.95626 17.3346 9.74506 16.6416C9.6817 16.4177 9.70282 16.4071 10.2942 16.4071L10.9067 16.3964L10.3892 16.1512C9.77674 15.8421 9.21707 15.3197 8.94251 14.7866C8.74187 14.4028 8.48843 13.4327 8.56235 13.3581C8.58347 13.3261 8.80523 13.39 9.05867 13.4753C9.7873 13.7419 9.88234 13.6779 9.45995 13.2301C8.66795 12.4199 8.42507 11.2152 8.80523 10.0745L8.98475 9.56279L9.6817 10.2557C11.1073 11.6523 12.7863 12.4839 14.7082 12.7291L15.2362 12.793Z" fill="white"/>
</svg>
