<svg width="32" height="31" viewBox="0 0 32 31" fill="none" xmlns="http://www.w3.org/2000/svg">
<path fill-rule="evenodd" clip-rule="evenodd" d="M16.0753 0.774902C7.73759 0.774902 0.978516 7.53398 0.978516 15.8717C0.978516 24.2095 7.73759 30.9685 16.0753 30.9685C24.4131 30.9685 31.1722 24.2095 31.1722 15.8717C31.1722 7.53398 24.4131 0.774902 16.0753 0.774902ZM22.3684 10.6817C23.0613 10.8719 23.607 11.4321 23.7921 12.1435C24.1287 13.4329 24.1287 16.1233 24.1287 16.1233C24.1287 16.1233 24.1287 18.8136 23.7921 20.1031C23.607 20.8145 23.0613 21.3747 22.3684 21.565C21.1127 21.9104 16.077 21.9104 16.077 21.9104C16.077 21.9104 11.0414 21.9104 9.78559 21.565C9.09269 21.3747 8.54701 20.8145 8.36182 20.1031C8.02539 18.8136 8.02539 16.1233 8.02539 16.1233C8.02539 16.1233 8.02539 13.4329 8.36182 12.1435C8.54701 11.4321 9.09269 10.8719 9.78559 10.6817C11.0414 10.3362 16.077 10.3362 16.077 10.3362C16.077 10.3362 21.1127 10.3362 22.3684 10.6817Z" fill="#1E293B"/>
<path d="M14.5662 18.8912V13.8589L18.592 16.3751L14.5662 18.8912Z" fill="#1E293B"/>
</svg>
