<svg width="31" height="31" viewBox="0 0 31 31" fill="none" xmlns="http://www.w3.org/2000/svg">
<path fill-rule="evenodd" clip-rule="evenodd" d="M15.8499 0.000244141C7.51216 0.000244141 0.753082 6.75932 0.753082 15.0971C0.753082 23.4348 7.51216 30.1939 15.8499 30.1939C24.1876 30.1939 30.9467 23.4348 30.9467 15.0971C30.9467 6.75932 24.1876 0.000244141 15.8499 0.000244141ZM22.1429 9.90707C22.8358 10.0972 23.3815 10.6574 23.5667 11.3689C23.9032 12.6583 23.9032 15.3486 23.9032 15.3486C23.9032 15.3486 23.9032 18.0389 23.5667 19.3284C23.3815 20.0398 22.8358 20.6001 22.1429 20.7903C20.8873 21.1358 15.8516 21.1358 15.8516 21.1358C15.8516 21.1358 10.8159 21.1358 9.56015 20.7903C8.86726 20.6001 8.32158 20.0398 8.13639 19.3284C7.79996 18.0389 7.79996 15.3486 7.79996 15.3486C7.79996 15.3486 7.79996 12.6583 8.13639 11.3689C8.32158 10.6574 8.86726 10.0972 9.56015 9.90707C10.8159 9.56152 15.8516 9.56152 15.8516 9.56152C15.8516 9.56152 20.8873 9.56152 22.1429 9.90707Z" fill="white"/>
<path d="M14.3407 18.1165V13.0842L18.3666 15.6005L14.3407 18.1165Z" fill="white"/>
</svg>
